<svg width="57" height="56" viewBox="0 0 57 56" fill="none" xmlns="http://www.w3.org/2000/svg">
<g id="cloud_upload" clip-path="url(#clip0_3281_1842)">
<path id="Vector" d="M45.65 23.4267C44.0633 15.3767 36.9933 9.33337 28.5 9.33337C21.7567 9.33337 15.9 13.16 12.9833 18.76C5.96 19.5067 0.5 25.4567 0.5 32.6667C0.5 40.39 6.77667 46.6667 14.5 46.6667H44.8333C51.2733 46.6667 56.5 41.44 56.5 35C56.5 28.84 51.7167 23.8467 45.65 23.4267ZM44.8333 42H14.5C9.34333 42 5.16667 37.8234 5.16667 32.6667C5.16667 27.8834 8.73667 23.8934 13.4733 23.4034L15.97 23.1467L17.1367 20.93C19.3533 16.66 23.6933 14 28.5 14C34.6133 14 39.8867 18.34 41.0767 24.3367L41.7767 27.8367L45.3467 28.0934C48.9867 28.3267 51.8333 31.3834 51.8333 35C51.8333 38.85 48.6833 42 44.8333 42ZM19.1667 30.3334H25.1167V37.3334H31.8833V30.3334H37.8333L28.5 21L19.1667 30.3334Z" fill="#212121"/>
</g>
<defs>
<clipPath id="clip0_3281_1842">
<rect width="56" height="56" fill="white" transform="translate(0.5)"/>
</clipPath>
</defs>
</svg>
