<svg width="32" height="32" viewBox="0 0 32 32" fill="none" xmlns="http://www.w3.org/2000/svg">
<g id="emoji_events" clip-path="url(#clip0_2984_4852)">
<path id="Vector" d="M25.3333 6.66667H22.6667V4H9.33333V6.66667H6.66667C5.2 6.66667 4 7.86667 4 9.33333V10.6667C4 14.0667 6.56 16.84 9.85333 17.2533C10.6933 19.2533 12.4933 20.76 14.6667 21.2V25.3333H9.33333V28H22.6667V25.3333H17.3333V21.2C19.5067 20.76 21.3067 19.2533 22.1467 17.2533C25.44 16.84 28 14.0667 28 10.6667V9.33333C28 7.86667 26.8 6.66667 25.3333 6.66667ZM6.66667 10.6667V9.33333H9.33333V14.4267C7.78667 13.8667 6.66667 12.4 6.66667 10.6667ZM16 18.6667C13.8 18.6667 12 16.8667 12 14.6667V6.66667H20V14.6667C20 16.8667 18.2 18.6667 16 18.6667ZM25.3333 10.6667C25.3333 12.4 24.2133 13.8667 22.6667 14.4267V9.33333H25.3333V10.6667Z" fill="#212121"/>
</g>
<defs>
<clipPath id="clip0_2984_4852">
<rect width="32" height="32" fill="white"/>
</clipPath>
</defs>
</svg>
