<svg width="32" height="32" viewBox="0 0 32 32" fill="none" xmlns="http://www.w3.org/2000/svg">
<g id="grade" clip-path="url(#clip0_2984_4868)">
<path id="Vector" d="M16 9.50669L17.2933 12.56L17.92 14.04L19.52 14.1734L22.8133 14.4534L20.3067 16.6267L19.0933 17.68L19.4533 19.2534L20.2 22.4667L17.3733 20.76L16 19.9067L14.6267 20.7334L11.8 22.44L12.5467 19.2267L12.9067 17.6534L11.6933 16.6L9.18666 14.4267L12.48 14.1467L14.08 14.0134L14.7067 12.5334L16 9.50669ZM16 2.66669L12.2533 11.5067L2.66666 12.32L9.94666 18.6267L7.75999 28L16 23.0267L24.24 28L22.0533 18.6267L29.3333 12.32L19.7467 11.5067L16 2.66669Z" fill="#212121"/>
</g>
<defs>
<clipPath id="clip0_2984_4868">
<rect width="32" height="32" fill="white"/>
</clipPath>
</defs>
</svg>
