<svg width="22" height="22" viewBox="0 0 22 22" fill="none" xmlns="http://www.w3.org/2000/svg">
<g id="Group">
<path id="Vector" d="M3.06667 5.73331C-0.57333 9.37331 -0.57333 15.2933 3.06667 18.9333C4.89334 20.76 7.28 21.6666 9.66667 21.6666C12.0533 21.6666 14.44 20.76 16.2667 18.9333C20.9067 14.2933 21.6667 0.333313 21.6667 0.333313C21.6667 0.333313 7.70667 1.09331 3.06667 5.73331ZM14.3867 17.0533C13.12 18.3066 11.4533 19 9.66667 19C8.48 19 7.36 18.6666 6.36 18.0933C7.58667 14.2533 9.85334 10.88 12.8667 8.33331C9.36 10.1466 6.41334 12.9466 4.37334 16.3333C2.4 13.72 2.57334 9.99998 4.96 7.61331C7.28 5.29331 13.72 3.86665 18.7333 3.26665C18.1333 8.27998 16.7067 14.72 14.3867 17.0533Z" fill="#212121"/>
</g>
</svg>
