<svg width="17" height="15" viewBox="0 0 17 15" fill="none" xmlns="http://www.w3.org/2000/svg">
<path id="Vector" d="M16.686 6.92631C16.0092 5.45861 15.018 4.15769 13.7825 3.11572L15.9063 0.991875L14.9151 0L12.6085 2.30457C11.3318 1.56607 9.88049 1.18317 8.40562 1.19571C3.15205 1.19571 0.740313 5.58139 0.125295 6.92631C0.0427357 7.10654 0 7.30246 0 7.5007C0 7.69894 0.0427357 7.89486 0.125295 8.07509C0.80205 9.54279 1.79328 10.8437 3.02877 11.8857L0.905626 14.0095L1.8961 15L4.20277 12.6954C5.47948 13.4339 6.93076 13.8168 8.40562 13.8043C13.6592 13.8043 16.0709 9.4186 16.686 8.07369C16.7683 7.89366 16.811 7.69799 16.811 7.5C16.811 7.30201 16.7683 7.10634 16.686 6.92631ZM1.40086 7.5077C1.92622 6.35542 3.98772 2.59667 8.40562 2.59667C9.50509 2.59024 10.5902 2.84674 11.5704 3.34477L10.334 4.58111C9.66153 4.13463 8.85527 3.93457 8.05205 4.01488C7.24883 4.09519 6.49813 4.45092 5.92734 5.02172C5.35655 5.59251 5.00082 6.3432 4.92051 7.14642C4.8402 7.94964 5.04026 8.75591 5.48674 9.42841L4.03045 10.8847C2.90995 9.97225 2.01089 8.81765 1.40086 7.5077ZM10.5071 7.5C10.5071 8.05733 10.2857 8.59184 9.89156 8.98593C9.49747 9.38003 8.96296 9.60143 8.40562 9.60143C8.09357 9.60022 7.78584 9.52838 7.50551 9.39128L10.2969 6.59989C10.434 6.88022 10.5058 7.18795 10.5071 7.5ZM6.3042 7.5C6.3042 6.94267 6.5256 6.40816 6.91969 6.01406C7.31378 5.61997 7.84829 5.39857 8.40562 5.39857C8.71768 5.39978 9.02541 5.47162 9.30574 5.60871L6.51434 8.40011C6.37725 8.11978 6.3054 7.81205 6.3042 7.5ZM8.40562 12.4033C7.30616 12.4098 6.22109 12.1533 5.24087 11.6552L6.47721 10.4189C7.14972 10.8654 7.95598 11.0654 8.7592 10.9851C9.56242 10.9048 10.3131 10.5491 10.8839 9.97828C11.4547 9.40749 11.8104 8.65679 11.8907 7.85358C11.9711 7.05036 11.771 6.24409 11.3245 5.57159L12.7801 4.116C13.9028 5.02929 14.8024 6.18665 15.4104 7.5C14.8752 8.66069 12.813 12.4033 8.40562 12.4033Z" fill="black"/>
</svg>
