<svg width="32" height="32" viewBox="0 0 32 32" fill="none" xmlns="http://www.w3.org/2000/svg">
<g id="Social Icons/White/Pinterest">
<circle id="BG" opacity="0.1" cx="16" cy="16" r="16" fill="white"/>
<path id="Path" d="M10.2251 26.308C9.90362 27.6922 10.0284 29.6343 10.1684 30.8994C10.1684 30.8994 10.4984 31.0303 10.7128 31.1058C10.9261 31.1809 11.2633 31.2852 11.2633 31.2852C11.9138 30.2224 12.8896 28.4808 13.2508 27.0909C13.4456 26.342 14.2474 23.288 14.2474 23.288C14.7694 24.2827 16.2936 25.1261 17.9161 25.1261C22.7403 25.1261 26.218 20.6878 26.218 15.1736C26.218 9.88816 21.9044 5.93213 16.3541 5.93213C9.44977 5.93213 5.78296 10.5689 5.78296 15.6161C5.78296 17.961 7.03107 20.8845 9.02805 21.8149C9.33252 21.9548 9.49515 21.8924 9.56512 21.5993C9.61807 21.3781 9.8885 20.2907 10.0095 19.7858C10.0473 19.6232 10.0284 19.4851 9.89795 19.3263C9.23607 18.5245 8.70846 17.0495 8.70846 15.6747C8.70846 12.1461 11.3806 8.73085 15.9324 8.73085C19.8639 8.73085 22.6155 11.4086 22.6155 15.2398C22.6155 19.5683 20.4294 22.5675 17.5852 22.5675C16.0156 22.5675 14.8393 21.2703 15.2157 19.6761C15.6676 17.7738 16.5413 15.722 16.5413 14.3491C16.5413 13.1199 15.8813 12.095 14.5179 12.095C12.9104 12.095 11.6226 13.7553 11.6226 15.9811C11.6226 17.3974 12.1011 18.3562 12.1011 18.3562C12.1011 18.3562 10.5144 25.0599 10.2251 26.308Z" fill="white"/>
</g>
</svg>
